<svg width="20" height="20" viewBox="0 0 20 20" fill="none" xmlns="http://www.w3.org/2000/svg">
<path d="M15.831 16.6666C8.72184 16.6766 3.326 11.2166 3.3335 4.16909C3.3335 3.70825 3.70684 3.33325 4.16684 3.33325H6.36684C6.77934 3.33325 7.13017 3.63659 7.191 4.04492C7.33609 5.02413 7.62094 5.97746 8.03684 6.87575L8.12267 7.06075C8.18033 7.18524 8.19273 7.32595 8.15774 7.45861C8.12275 7.59127 8.04256 7.70756 7.931 7.78742C7.24934 8.27409 6.98934 9.25325 7.52017 10.0166C8.18849 10.9777 9.02262 11.8121 9.9835 12.4808C10.7477 13.0108 11.7268 12.7508 12.2127 12.0699C12.2924 11.958 12.4088 11.8775 12.5417 11.8424C12.6745 11.8072 12.8155 11.8196 12.9402 11.8774L13.1243 11.9624C14.0227 12.3791 14.976 12.6641 15.9552 12.8091C16.3635 12.8699 16.6668 13.2208 16.6668 13.6341V15.8333C16.6668 15.9428 16.6453 16.0512 16.6033 16.1523C16.5614 16.2535 16.4999 16.3454 16.4225 16.4228C16.345 16.5002 16.253 16.5616 16.1518 16.6034C16.0506 16.6452 15.9422 16.6667 15.8327 16.6666H15.831Z" fill="#B59571"/>
</svg>
